<svg width="549" height="373" viewBox="0 0 549 373" fill="none" xmlns="http://www.w3.org/2000/svg">
<path d="M0 142C0 133.716 6.71573 127 15 127H159C167.284 127 174 133.716 174 142C174 150.284 167.284 157 159 157H15C6.71573 157 0 150.284 0 142Z" fill="black"/>
<path d="M236.5 319.5C212.167 332.167 179.333 345.833 138 360.5L75 300C116.333 191 171.833 91.1667 241.5 0.499974L295.5 54C259.5 97.6667 224.333 153 190 220C180 240 171 259.333 163 278C203 269 236.667 259 264 248V249C317 139.667 361.833 62.6667 398.5 18L453.5 71.5C401.5 134.167 348 234.667 293 373L236.5 319.5Z" fill="#FF0000"/>
<path d="M187 142C187 133.716 193.716 127 202 127H346C354.284 127 361 133.716 361 142C361 150.284 354.284 157 346 157H202C193.716 157 187 150.284 187 142Z" fill="black"/>
<path d="M0 197C0 188.716 6.71573 182 15 182H72C80.2843 182 87 188.716 87 197C87 205.284 80.2843 212 72 212H15C6.71573 212 0 205.284 0 197Z" fill="black"/>
<path d="M0 252C0 243.716 6.71573 237 15 237H159C167.284 237 174 243.716 174 252C174 260.284 167.284 267 159 267H15C6.71573 267 0 260.284 0 252Z" fill="black"/>
<path d="M187 252C187 243.716 193.716 237 202 237H346C354.284 237 361 243.716 361 252C361 260.284 354.284 267 346 267H202C193.716 267 187 260.284 187 252Z" fill="black"/>
<path fill-rule="evenodd" clip-rule="evenodd" d="M205.5 127C195.283 127 187 135.283 187 145.5V193.5C187 203.717 195.283 212 205.5 212C215.717 212 224 203.717 224 193.5V181.9C221.718 181.437 220 179.419 220 177V162C220 159.581 221.718 157.563 224 157.1V145.5C224 135.283 215.717 127 205.5 127Z" fill="black"/>
<path fill-rule="evenodd" clip-rule="evenodd" d="M374 145.5C374 136.981 379.758 129.807 387.594 127.657C388.987 127.23 390.467 127 392 127H392.5H512C532.435 127 549 143.565 549 164V230C549 250.435 532.435 267 512 267H392.5H389C380.716 267 374 260.284 374 252C374 251.44 374.031 250.887 374.091 250.342C374.031 249.736 374 249.122 374 248.5V145.5ZM415 155C412.239 155 410 157.239 410 160V235C410 237.761 412.239 240 415 240H510C512.761 240 515 237.761 515 235V160C515 157.239 512.761 155 510 155H415Z" fill="black"/>
<path fill-rule="evenodd" clip-rule="evenodd" d="M187 197C187 188.716 193.716 182 202 182H342.5H346C354.284 182 361 188.716 361 197C361 197.56 360.969 198.113 360.909 198.658C360.969 199.264 361 199.878 361 200.5V248.5C361 258.717 352.717 267 342.5 267C332.283 267 324 258.717 324 248.5V236.9C326.282 236.437 328 234.419 328 232V217C328 214.581 326.282 212.563 324 212.1V212H323H203H202C193.716 212 187 205.284 187 197Z" fill="black"/>
</svg>
